<?xml version="1.0" standalone="no"?>
<!DOCTYPE svg PUBLIC "-//W3C//DTD SVG 20010904//EN"
 "http://www.w3.org/TR/2001/REC-SVG-20010904/DTD/svg10.dtd">
<svg version="1.0" xmlns="http://www.w3.org/2000/svg"
 width="840.000000pt" height="1057.000000pt" viewBox="0 0 840.000000 1057.000000"
 preserveAspectRatio="xMidYMid meet">

<g transform="translate(0.000000,1057.000000) scale(0.100000,-0.100000)"
fill="#000000" stroke="none">
<path d="M3456 9868 c-242 -7 -283 -10 -310 -26 -17 -10 -66 -61 -109 -112
-43 -52 -107 -126 -141 -165 -98 -110 -97 -108 -86 -201 44 -353 62 -756 80
-1749 6 -319 14 -640 17 -713 l6 -134 -579 6 c-318 3 -669 8 -779 11 -122 3
-206 2 -215 -4 -18 -12 -18 8 -1 -511 10 -314 12 -664 7 -1440 -4 -564 -9
-1043 -11 -1065 -2 -22 -6 -718 -9 -1547 -3 -1147 -2 -1509 7 -1516 7 -5 1184
-9 2879 -10 l2868 -1 11 21 c9 16 9 117 1 397 -21 684 -23 826 -30 2091 -9
1647 -9 2101 2 2906 l9 672 -21 11 c-28 15 -251 14 -632 -4 -173 -8 -429 -18
-567 -21 l-253 -7 0 75 c0 42 6 237 14 435 8 197 18 671 21 1053 4 382 10 790
14 905 6 182 5 213 -8 232 -52 71 -329 377 -355 390 -27 15 -98 17 -591 20
-308 2 -650 4 -760 6 -110 1 -325 -1 -479 -5z m1737 -730 c-1 -428 -48 -2246
-59 -2324 l-6 -42 -889 0 -889 0 -1 91 c0 51 -2 99 -3 107 -2 8 -6 130 -10
270 -12 452 -26 822 -36 945 -5 66 -14 305 -19 530 -6 226 -13 487 -16 582
l-6 172 53 3 c29 2 465 2 968 1 l915 -2 -2 -333z m-332 -3670 c1 -57 0 -146
-1 -199 -2 -104 8 -139 40 -139 28 0 43 67 38 163 -5 84 -16 103 -52 86 -18
-9 -17 -7 3 10 26 24 64 27 101 8 75 -37 81 -210 9 -261 -28 -19 -109 -21
-128 -3 -11 10 -14 10 -18 0 -3 -9 -26 -13 -71 -12 -37 1 -59 3 -49 6 15 4 17
23 17 218 0 195 -2 214 -17 218 -10 3 15 5 55 6 l72 1 1 -102z m829 12 c12 0
22 -34 14 -54 -7 -18 -49 -22 -59 -6 -4 6 -2 17 5 25 14 16 -4 31 -23 18 -7
-4 -4 0 7 10 10 10 26 15 33 12 8 -3 18 -5 23 -5z m-2643 -96 c22 -23 28 -24
37 -12 32 43 96 49 131 13 24 -23 25 -31 25 -134 0 -94 3 -111 18 -120 12 -8
-4 -10 -62 -11 -62 0 -77 3 -68 12 13 13 17 184 6 226 -8 29 -34 25 -51 -8
-17 -34 -18 -216 0 -223 6 -3 -19 -6 -58 -6 l-70 -1 3 130 c3 104 0 130 -10
130 -8 0 -20 -6 -27 -12 -10 -11 -11 -9 -5 5 16 42 93 49 131 11z m495 2 c34
-22 48 -57 48 -122 0 -66 -20 -108 -60 -129 -34 -17 -97 -22 -67 -4 15 9 17
26 17 128 0 96 -3 121 -16 132 -11 9 -20 10 -32 2 -14 -8 -18 -30 -20 -122 -1
-65 2 -119 8 -131 9 -17 8 -20 -10 -20 -66 0 -113 62 -112 149 0 63 20 96 73
124 41 22 133 18 171 -7z m351 13 c38 -17 47 -50 47 -164 0 -90 2 -104 18
-108 9 -3 -21 -5 -68 -5 -47 0 -79 2 -72 5 9 3 12 38 12 124 0 98 -3 121 -15
125 -8 4 -22 1 -30 -6 -10 -8 -15 -9 -15 -2 0 33 76 52 123 31z m313 -4 c23
-10 39 -26 49 -49 25 -60 22 -66 -42 -66 l-58 0 3 55 c3 45 1 56 -14 62 -33
12 -44 -23 -41 -130 2 -90 4 -101 26 -118 33 -27 68 -24 102 10 16 16 29 26
29 21 0 -4 -14 -20 -31 -34 -25 -22 -41 -26 -91 -26 -100 0 -148 46 -148 145
0 63 23 103 73 126 51 22 96 24 143 4z m972 -6 c-10 -17 -10 -23 0 -26 15 -6
16 -45 0 -61 -7 -7 -25 -12 -40 -12 -62 0 -59 91 4 109 48 14 49 13 36 -10z
m136 -9 c18 -17 22 -36 26 -128 5 -99 6 -107 24 -104 17 3 18 2 7 -12 -18 -22
-98 -21 -123 1 -13 11 -18 30 -18 65 0 34 -4 48 -14 48 -18 0 -26 -22 -26 -71
0 -29 4 -39 16 -39 8 0 12 -4 9 -10 -10 -17 -96 -12 -117 7 -24 21 -23 75 1
97 11 10 43 20 75 23 l56 6 0 61 c0 36 -5 68 -12 75 -23 24 72 5 96 -19z m321
-7 c28 -33 33 -87 10 -120 -18 -26 -87 -47 -125 -39 -25 5 -50 -8 -50 -26 0
-4 32 -8 70 -8 113 0 160 -29 160 -99 0 -42 -45 -90 -90 -96 -26 -4 -30 -3
-15 4 32 14 48 38 41 65 -7 29 -30 36 -118 36 -55 0 -72 4 -89 21 -25 25 -18
55 19 85 l26 21 -29 26 c-39 33 -41 93 -6 131 28 30 49 36 118 31 43 -3 57 -9
78 -32z m-2734 5 c0 -13 0 -72 -1 -132 -1 -81 2 -111 12 -117 7 -5 -22 -8 -72
-8 -47 1 -77 3 -67 6 15 4 17 19 17 139 l0 134 55 0 c50 0 55 -2 56 -22z m860
0 c0 -13 0 -72 -1 -132 -1 -81 2 -111 12 -117 7 -5 -22 -8 -72 -8 -47 1 -77 3
-67 6 16 4 18 16 15 139 l-3 134 58 0 c52 0 57 -2 58 -22z m698 -79 c18 -56
36 -97 40 -91 4 6 20 52 36 101 17 50 33 91 37 91 7 0 -103 -323 -123 -363
-15 -28 -40 -57 -50 -57 -4 0 2 11 14 24 12 13 30 44 39 69 l17 46 -27 3 c-23
3 -30 14 -64 103 -21 55 -45 117 -53 138 l-15 37 58 0 58 0 33 -101z m-91
-231 c16 -16 15 -45 0 -51 -10 -3 -10 -9 0 -27 14 -22 13 -23 -19 -16 -44 8
-59 23 -59 57 0 41 50 65 78 37z m1093 -26 c9 -44 20 -54 71 -63 31 -6 23 -7
-27 -3 -38 3 -80 12 -92 20 -28 17 -30 59 -5 73 28 17 46 8 53 -27z m-597
-754 c-1 -112 -2 -211 -3 -220 -1 -15 -11 -18 -51 -18 l-50 0 0 220 0 220 53
0 52 0 -1 -202z m841 87 c0 -21 -5 -31 -19 -33 -26 -5 -45 16 -26 29 13 8 12
12 -5 25 -19 15 -18 15 15 12 31 -3 35 -6 35 -33z m-2645 -73 c17 -21 20 -40
20 -138 l0 -114 -55 0 -55 0 0 130 c0 116 -2 130 -17 130 -22 0 -5 17 22 22
35 7 65 -4 85 -30z m168 2 c20 -23 22 -35 22 -140 l0 -114 -52 0 -53 0 3 97
c4 118 -3 163 -25 163 -21 0 -5 16 22 23 31 7 58 -2 83 -29z m667 22 c41 -18
44 -27 47 -169 l3 -107 -52 0 -52 0 -3 127 c-3 126 -3 127 -28 134 -24 6 -24
6 10 17 19 5 36 11 38 11 1 1 18 -5 37 -13z m1130 -28 c21 -25 25 -40 25 -99
0 -111 -31 -150 -118 -148 -31 0 -34 2 -15 9 27 11 37 68 31 171 -3 54 -8 74
-22 84 -17 13 -17 13 1 17 37 7 74 -5 98 -34z m-2124 10 c1 -13 2 -76 3 -140
l1 -118 -52 0 -53 0 0 140 0 140 50 0 c45 0 50 -2 51 -22z m519 -4 c-6 -14
-10 -65 -10 -114 0 -49 4 -100 10 -114 8 -21 6 -26 -6 -26 -28 0 -74 30 -89
60 -19 37 -19 123 0 160 16 31 57 59 87 60 15 0 16 -4 8 -26z m138 3 c39 -32
53 -121 28 -180 -18 -42 -45 -65 -87 -74 -30 -6 -33 -5 -21 10 10 12 13 48 10
142 l-3 127 29 -6 c16 -3 36 -12 44 -19z m203 -4 c0 -16 1 -79 2 -140 l2 -113
-55 0 -55 0 3 140 3 140 50 0 c47 0 49 -1 50 -27z m352 0 c-4 -16 -8 -65 -7
-109 0 -97 16 -130 66 -137 18 -3 2 -4 -35 -3 -61 2 -71 5 -99 33 -26 26 -32
41 -36 89 -3 42 0 66 12 89 18 33 60 64 89 65 14 0 16 -5 10 -27z m128 -2 c19
-20 29 -40 29 -60 0 -30 -1 -31 -49 -31 l-49 0 -4 60 c-3 57 -2 60 20 60 13 0
37 -13 53 -29z m199 12 c0 -26 53 -183 62 -183 4 0 8 5 8 12 0 6 2 9 5 6 3 -2
-2 -26 -11 -52 -15 -44 -18 -47 -47 -44 -30 3 -33 8 -69 103 -21 55 -45 117
-53 138 l-15 37 60 0 c50 0 60 -3 60 -17z m150 13 c0 -3 -4 -8 -10 -11 -5 -3
-10 -1 -10 4 0 6 5 11 10 11 6 0 10 -2 10 -4z m590 -15 c0 -11 5 -23 10 -26
25 -16 -5 -65 -40 -65 -22 0 -50 26 -50 46 0 20 45 64 65 64 8 0 15 -9 15 -19z
m124 13 c28 -11 37 -41 43 -142 3 -53 9 -102 14 -108 13 -16 0 -24 -42 -24
-68 0 -78 18 -81 158 l-3 122 27 0 c14 0 34 -3 42 -6z m214 -36 c-10 -46 -4
-114 13 -134 18 -21 -62 2 -85 25 -32 32 -28 96 7 127 16 13 39 24 51 24 23 0
23 -2 14 -42z m123 13 c52 -65 23 -135 -64 -155 l-28 -7 17 26 c13 20 16 41
12 95 -5 69 -5 70 19 68 14 -2 34 -13 44 -27z m-441 -140 c-13 -25 -13 -78 0
-86 21 -13 8 -25 -28 -25 -53 0 -82 23 -82 65 0 42 29 65 83 65 34 0 37 -2 27
-19z m274 -35 c-4 -10 13 -14 79 -18 94 -5 131 -21 148 -65 14 -38 -6 -90 -45
-114 -42 -25 -66 -24 -32 2 29 23 33 50 10 73 -11 12 -36 16 -93 16 -47 0 -83
5 -93 13 -28 22 -28 45 -2 77 28 33 36 38 28 16z m-1090 -142 c10 -25 7 -34
-9 -34 -18 0 -20 -21 -2 -39 10 -11 7 -12 -18 -6 -38 9 -55 23 -55 45 0 37 12
50 45 50 21 0 35 -6 39 -16z m1086 -19 c0 -21 6 -38 18 -45 14 -9 9 -10 -21
-6 -47 6 -67 21 -67 51 0 29 8 35 42 35 25 0 28 -3 28 -35z m-609 -107 c0 -57
0 -144 -1 -195 -2 -102 9 -136 43 -131 27 4 35 32 36 125 1 88 -10 123 -41
124 -20 1 -19 2 8 14 41 18 96 4 119 -31 37 -58 28 -182 -17 -224 -29 -27 -83
-34 -121 -15 -20 10 -33 12 -35 5 -2 -5 -27 -10 -55 -10 l-52 0 3 220 3 220
54 0 55 0 1 -102z m837 10 c16 -16 15 -33 -4 -52 -12 -12 -20 -14 -36 -5 -15
8 -17 14 -9 22 19 19 12 30 -14 25 -20 -4 -23 -3 -14 8 14 17 61 18 77 2z
m-2650 -88 c2 -6 9 -16 15 -23 8 -8 12 -53 12 -124 l0 -113 -60 0 -60 0 3 130
c3 111 1 130 -12 130 -35 0 -47 -43 -44 -154 l3 -106 -60 0 -60 0 3 132 c2
100 0 133 -10 139 -8 5 15 9 55 9 62 0 67 -2 67 -22 l0 -21 23 20 c12 12 31
23 42 25 26 5 79 -9 83 -22z m143 20 c5 0 18 -9 29 -20 18 -18 20 -33 20 -134
0 -82 4 -116 13 -119 6 -3 -17 -6 -53 -6 l-65 -1 0 124 c0 68 -4 128 -8 132
-4 5 -18 2 -30 -5 -22 -14 -22 -14 -3 7 18 21 50 32 74 26 8 -2 18 -4 23 -4z
m724 -21 c17 -17 21 -36 25 -139 l5 -120 -60 0 -60 0 3 125 c3 111 1 126 -14
132 -11 4 -24 -2 -36 -17 -17 -21 -19 -38 -16 -132 l3 -108 -60 0 -60 0 3 132
c2 100 0 133 -10 139 -8 5 15 9 55 9 62 0 67 -2 67 -22 l0 -21 23 20 c39 37
95 37 132 2z m1403 -3 c13 -13 18 -42 22 -124 5 -97 7 -107 24 -105 17 1 17 0
2 -15 -23 -23 -92 -20 -117 4 -15 16 -19 38 -21 145 l-3 125 38 -7 c22 -4 46
-14 55 -23z m-1896 12 c-8 -8 -12 -51 -12 -129 0 -94 3 -119 16 -130 11 -9 20
-10 32 -2 14 8 17 31 20 128 2 78 -1 122 -9 131 -9 11 -6 14 21 14 23 0 41 -9
66 -34 32 -32 34 -38 34 -99 0 -87 -26 -127 -95 -144 -64 -16 -121 -7 -158 27
-26 23 -31 36 -35 89 -5 74 10 116 52 142 36 22 88 27 68 7z m688 -7 c-5 -11
-10 -38 -10 -60 0 -39 2 -41 30 -41 38 0 43 12 31 73 -8 45 -8 47 15 47 37 0
83 -49 86 -90 l3 -35 -82 -3 -83 -3 0 -40 c0 -67 23 -98 75 -100 l30 -1 -30
-9 c-64 -20 -143 11 -170 67 -44 93 10 210 98 213 14 1 16 -3 7 -18z m333 11
c-9 -6 -6 -27 13 -87 37 -119 34 -113 49 -85 21 37 18 23 -14 -71 -34 -100
-53 -140 -78 -160 -17 -13 -17 -13 -2 6 19 23 43 70 53 102 6 18 3 22 -21 25
-26 3 -31 12 -77 133 -27 72 -54 133 -60 137 -6 4 25 8 69 8 44 0 75 -4 68 -8z
m146 1 c-9 -2 -25 -33 -38 -74 -12 -39 -25 -69 -27 -66 -2 2 5 30 16 62 24 71
24 72 3 78 -10 3 0 5 22 5 22 0 33 -2 24 -5z m585 -4 c-3 -6 0 -22 7 -36 17
-32 2 -57 -37 -61 -29 -4 -54 18 -54 45 0 21 47 63 70 63 13 0 18 -4 14 -11z
m348 -1 c-12 -12 -17 -124 -6 -152 9 -24 41 -19 48 7 9 35 7 117 -4 138 -9 17
-7 19 19 19 57 0 100 -85 71 -140 -15 -29 -48 -43 -114 -49 -81 -8 -88 -31 -9
-31 111 0 173 -32 173 -90 0 -45 -25 -85 -62 -101 -49 -21 -187 -19 -221 4
-32 21 -35 50 -6 71 28 19 49 10 49 -22 0 -41 27 -62 80 -62 75 0 127 55 85
90 -8 6 -52 14 -97 17 -46 3 -89 10 -95 16 -24 18 -15 64 17 89 l30 24 -29 22
c-37 27 -47 70 -27 111 19 36 41 50 81 51 22 0 26 -3 17 -12z m-320 -150 c-15
-15 -16 -90 -1 -105 17 -17 -41 -26 -77 -13 -35 14 -44 26 -44 66 0 40 21 57
79 64 52 7 60 5 43 -12z m-824 -191 c2 -10 -3 -24 -12 -30 -17 -13 -11 -30 14
-40 8 -3 1 -6 -15 -6 -56 -2 -87 36 -69 84 9 23 78 17 82 -8z"/>
<path d="M5516 5384 c-3 -9 -6 -44 -6 -79 0 -45 4 -66 16 -76 14 -11 18 -10
30 6 16 22 19 117 4 146 -13 23 -36 25 -44 3z"/>
</g>
</svg>
