<?xml version="1.0" standalone="no"?>
<!DOCTYPE svg PUBLIC "-//W3C//DTD SVG 20010904//EN"
 "http://www.w3.org/TR/2001/REC-SVG-20010904/DTD/svg10.dtd">
<svg version="1.0" xmlns="http://www.w3.org/2000/svg"
 width="840.000000pt" height="1283.000000pt" viewBox="0 0 840.000000 1283.000000"
 preserveAspectRatio="xMidYMid meet">

<g transform="translate(0.000000,1283.000000) scale(0.100000,-0.100000)"
fill="#000000" stroke="none">
<path d="M4400 12104 c-239 -11 -471 -13 -874 -9 l-549 6 -136 -133 c-75 -74
-181 -176 -237 -228 -56 -52 -108 -107 -118 -121 -38 -60 -55 -234 -101 -1019
-54 -942 -130 -2081 -142 -2129 -5 -21 -3 -23 18 -18 13 3 117 13 232 23 l207
17 0 36 c0 20 9 176 19 346 11 171 25 438 31 595 6 157 15 395 21 530 5 135
16 449 24 699 16 497 42 941 55 955 11 11 1687 28 2358 24 372 -2 485 -6 490
-15 5 -7 14 -147 20 -310 7 -164 19 -388 27 -498 8 -110 21 -339 30 -510 8
-170 17 -339 20 -375 3 -36 12 -256 20 -490 20 -528 41 -1010 46 -1015 6 -5
440 -28 445 -22 2 2 -2 130 -11 283 -8 153 -20 369 -25 479 -15 266 -41 668
-95 1425 -24 344 -49 711 -55 815 -6 105 -16 201 -22 215 -5 14 -36 48 -67 75
-31 28 -87 86 -126 129 -134 151 -199 218 -229 234 -27 14 -90 16 -491 18
-280 1 -587 -3 -785 -12z"/>
<path d="M4604 8026 c-74 -33 -108 -126 -102 -280 3 -82 8 -110 28 -151 45
-91 161 -121 236 -63 35 28 64 93 64 146 l0 42 -50 0 c-48 0 -50 -1 -50 -28 0
-37 -30 -64 -66 -60 -44 5 -55 37 -52 151 3 90 5 101 27 118 13 10 27 19 33
19 19 0 58 -50 58 -75 0 -24 3 -25 51 -25 l52 0 -6 55 c-10 99 -60 155 -144
162 -28 2 -61 -3 -79 -11z"/>
<path d="M2930 7770 l0 -260 118 0 c73 0 126 5 142 13 41 20 62 72 58 144 -3
53 -8 67 -33 93 -16 16 -24 30 -17 30 20 0 42 57 42 110 0 56 -20 104 -49 120
-11 5 -74 10 -140 10 l-121 0 0 -260z m200 124 c16 -42 -3 -64 -55 -64 l-45 0
0 38 c0 48 4 52 52 52 32 0 40 -4 48 -26z m5 -219 l0 -40 -50 0 -50 0 -3 43
-3 43 53 -3 53 -3 0 -40z"/>
<path d="M3470 7770 l0 -260 140 0 140 0 0 65 0 65 -85 0 -85 0 0 195 0 195
-55 0 -55 0 0 -260z"/>
<path d="M4055 8018 c-9 -26 -115 -480 -115 -494 0 -10 13 -14 50 -14 52 0 53
1 64 53 6 27 8 28 64 25 57 -3 57 -3 66 -40 10 -38 10 -38 63 -38 36 0 53 4
53 13 0 6 -26 122 -58 257 l-58 245 -62 3 c-44 2 -64 -1 -67 -10z m90 -266 l7
-52 -37 0 c-30 0 -35 3 -31 18 2 9 10 51 17 92 l13 75 12 -41 c6 -22 15 -63
19 -92z"/>
<path d="M5060 7770 l0 -260 50 0 50 0 0 53 c0 45 6 62 32 98 17 24 33 39 35
34 2 -6 18 -48 36 -95 l32 -85 64 -3 c49 -2 62 0 58 10 -2 7 -30 77 -62 155
l-57 142 43 73 c23 40 50 88 61 106 l20 32 -69 0 -68 0 -55 -105 c-30 -58 -58
-105 -62 -105 -5 0 -8 47 -8 105 l0 105 -50 0 -50 0 0 -260z"/>
<path d="M2202 7338 c92 -124 101 -141 91 -156 -17 -28 -27 -23 -68 34 l-40
56 -3 -37 c-3 -30 4 -47 28 -82 31 -42 31 -45 15 -63 -17 -19 -19 -19 -31 -2
-12 15 -13 12 -14 -25 0 -38 9 -56 86 -160 48 -65 91 -123 95 -129 5 -6 2 -20
-7 -33 -16 -22 -17 -21 -95 85 l-79 107 0 -44 c0 -38 9 -55 60 -123 33 -44 60
-85 60 -91 0 -13 -28 -41 -33 -34 -2 2 -21 29 -43 59 l-39 55 -3 -39 c-3 -31
3 -48 28 -83 31 -42 31 -45 15 -63 -17 -19 -19 -19 -31 -2 -12 15 -13 14 -14
-14 0 -23 17 -54 63 -115 51 -70 67 -85 93 -87 26 -3 35 3 60 39 l29 43 5 -40
5 -39 1740 0 1740 0 5 39 5 40 29 -42 c22 -33 35 -42 57 -42 24 0 39 13 94 87
48 64 65 94 65 117 -1 29 -1 30 -15 12 -8 -11 -16 -18 -18 -15 -1 2 -9 12 -16
21 -11 15 -8 23 19 61 25 35 31 52 28 83 l-3 39 -39 -55 c-22 -30 -41 -57 -43
-59 -5 -7 -33 21 -33 34 0 6 27 47 60 91 52 69 60 85 60 124 l0 45 -79 -108
c-78 -106 -82 -109 -104 -70 -4 6 10 33 31 60 121 155 152 205 152 247 -1 38
-2 40 -15 22 -8 -11 -16 -18 -18 -15 -1 2 -9 12 -16 21 -11 15 -8 23 19 61 25
35 31 52 28 83 l-3 39 -40 -57 c-41 -59 -51 -64 -69 -36 -10 17 -2 31 80 141
l36 47 -31 0 c-26 0 -38 -10 -80 -65 -49 -65 -49 -66 -65 -44 -14 21 -13 25
15 63 l30 41 -27 3 c-16 2 -34 -4 -48 -17 -21 -20 -22 -20 -34 -1 -12 20 -33
20 -1757 20 l-1744 0 -15 -22 -15 -21 -18 22 c-13 16 -27 22 -46 19 l-28 -3
30 -41 c28 -38 29 -42 15 -63 -16 -22 -16 -21 -65 44 -42 55 -54 65 -81 65
l-30 0 24 -32z m228 -106 c0 -32 -13 -55 -75 -140 -41 -56 -79 -102 -85 -102
-5 0 -14 8 -19 18 -7 14 9 42 81 140 49 67 91 122 94 122 2 0 4 -17 4 -38z
m3595 -93 c80 -109 82 -114 68 -136 -16 -24 -16 -23 -94 83 -68 92 -79 113
-79 148 0 49 -2 51 105 -95z m-3139 75 c60 -44 69 -67 72 -185 4 -132 1 -148
-40 -195 -41 -47 -83 -64 -153 -64 l-55 0 0 -145 0 -145 -60 0 -60 0 0 381 0
381 134 -4 c117 -3 138 -6 162 -24z m409 -81 c10 -60 39 -229 65 -378 l46
-270 -59 -3 c-33 -2 -61 -1 -63 1 -2 2 -10 41 -17 88 l-13 84 -57 3 c-66 3
-62 8 -80 -98 l-12 -75 -64 -3 c-62 -3 -63 -2 -58 20 3 13 22 115 41 228 20
113 47 270 61 350 14 80 25 148 25 153 0 4 38 7 83 7 l84 0 18 -107z m369 25
c13 -46 46 -155 73 -242 l48 -160 3 242 2 242 60 0 60 0 0 -380 0 -380 -64 0
-63 0 -79 238 -79 237 -3 -237 -2 -238 -60 0 -60 0 0 380 0 380 69 0 70 0 25
-82z m706 27 l0 -55 -60 0 -60 0 0 -325 0 -325 -60 0 -60 0 0 325 0 325 -65 0
-65 0 0 55 0 55 185 0 185 0 0 -55z m210 -105 l0 -160 70 0 70 0 0 160 0 160
60 0 60 0 0 -380 0 -380 -60 0 -60 0 0 160 0 160 -70 0 -70 0 0 -160 0 -161
-57 3 -58 3 -3 378 -2 377 60 0 60 0 0 -160z m700 105 l0 -55 -105 0 c-93 0
-105 -2 -106 -17 0 -10 -1 -56 -2 -103 l0 -85 76 -3 77 -3 0 -59 0 -60 -78 0
-77 0 0 -100 0 -100 108 0 107 0 0 -60 0 -60 -165 0 -165 0 0 380 0 380 165 0
165 0 0 -55z m371 34 c64 -32 82 -83 77 -223 -3 -105 -5 -115 -31 -149 l-27
-36 40 -153 c22 -84 40 -159 40 -166 0 -10 -16 -12 -62 -10 l-62 3 -35 143
-35 142 -38 0 -38 0 0 -145 0 -145 -60 0 -60 0 0 380 0 380 125 0 c107 0 132
-3 166 -21z m-3266 -259 c-38 -49 -50 -59 -61 -49 -22 18 -18 30 44 113 l57
77 3 -40 c3 -36 -3 -49 -43 -101z m3600 59 c45 -63 56 -85 49 -97 -18 -28 -28
-23 -71 37 -34 46 -43 67 -43 100 0 22 2 41 3 41 2 0 30 -36 62 -81z m-3566
-186 c-15 -28 -21 -29 -37 -3 -11 18 -9 26 15 60 l28 39 3 -36 c2 -20 -2 -47
-9 -60z m3546 -3 c-17 -19 -19 -19 -31 -2 -7 9 -14 37 -14 61 l0 45 31 -42
c30 -41 31 -44 14 -62z m-3535 -93 c0 -38 -9 -55 -76 -145 -42 -56 -79 -102
-83 -102 -3 0 -11 8 -18 19 -10 16 1 36 80 145 51 69 93 126 95 126 1 0 2 -19
2 -43z m3667 -228 c-7 -11 -15 -19 -18 -19 -4 0 -41 46 -83 102 -68 91 -76
106 -76 146 l0 45 94 -128 c82 -110 93 -130 83 -146z m-3703 -35 c-52 -76 -61
-82 -75 -51 -10 22 -6 32 47 103 l59 78 3 -38 c3 -30 -4 -48 -34 -92z m3595
42 c28 -38 51 -72 51 -75 0 -4 -6 -15 -13 -25 -13 -17 -17 -14 -60 42 -39 50
-47 68 -47 103 0 49 0 50 69 -45z"/>
<path d="M2710 7000 l0 -120 45 0 c35 0 52 6 70 25 22 21 25 33 25 97 0 100
-13 118 -86 118 l-54 0 0 -120z"/>
<path d="M3191 7043 c-3 -29 -32 -230 -36 -250 -5 -21 -2 -23 38 -23 l44 0
-19 128 c-19 133 -25 165 -27 145z"/>
<path d="M5480 7000 l0 -120 44 0 c28 0 52 7 67 19 22 17 24 27 24 104 0 105
-8 117 -81 117 l-54 0 0 -120z"/>
<path d="M2180 6392 c0 -38 2 -42 25 -42 14 0 25 4 25 8 0 4 -11 23 -25 42
l-25 34 0 -42z"/>
<path d="M6143 6400 c-30 -37 -29 -50 2 -50 23 0 25 4 25 40 0 22 -1 40 -2 39
-2 0 -13 -13 -25 -29z"/>
<path d="M3774 6139 c-83 -10 -159 -36 -236 -83 -94 -56 -134 -95 -240 -231
-56 -71 -105 -134 -110 -140 -5 -5 5 22 22 60 79 174 80 176 67 180 -76 26
-154 58 -207 85 -76 38 -129 43 -160 15 -58 -52 -87 -176 -70 -297 13 -89 8
-73 82 -298 33 -101 60 -200 60 -220 -5 -282 -1 -324 45 -465 56 -174 144
-308 244 -373 124 -80 160 -107 195 -150 48 -58 194 -300 194 -322 0 -37 72
-267 105 -335 39 -81 93 -148 139 -172 113 -59 275 -76 409 -44 110 26 155 49
202 103 65 76 116 207 175 443 13 56 161 295 218 353 26 26 86 71 133 100 121
72 196 169 259 335 61 158 89 345 69 466 l-11 67 66 199 c81 248 100 349 85
448 -19 122 -62 182 -127 181 -21 -1 -66 -16 -102 -34 -36 -18 -99 -46 -140
-61 -41 -15 -74 -32 -73 -38 2 -6 23 -56 48 -112 25 -56 45 -103 43 -104 -2
-2 -50 58 -107 131 -60 77 -127 151 -157 174 -75 57 -170 107 -234 123 -73 19
-231 29 -300 19 -54 -8 -53 -8 65 -20 160 -17 277 -46 353 -88 68 -38 186
-149 216 -204 16 -29 7 -23 -55 36 -132 125 -202 162 -356 184 -91 14 -227 10
-243 -6 -7 -7 12 -26 59 -59 38 -27 68 -51 66 -53 -2 -2 -33 13 -69 33 -38 21
-84 38 -108 40 -24 2 -44 4 -46 4 -1 1 2 10 8 22 9 15 9 28 0 48 -10 26 -15
27 -75 27 -60 0 -65 -1 -75 -27 -9 -20 -9 -33 0 -48 6 -12 9 -21 8 -22 -2 0
-22 -2 -45 -4 -24 -2 -70 -19 -108 -40 -36 -21 -68 -36 -70 -33 -2 2 28 26 66
53 48 34 66 52 58 60 -6 6 -59 10 -127 10 -217 -1 -317 -41 -471 -189 -62 -60
-71 -65 -55 -36 30 55 154 172 220 207 74 39 194 69 349 85 106 11 115 13 75
20 -58 8 -136 8 -226 -3z m-652 -221 c21 -6 47 -22 59 -35 23 -23 23 -23 5
-81 -10 -31 -42 -116 -72 -188 -30 -72 -61 -155 -70 -184 -8 -28 -17 -50 -19
-48 -2 1 3 55 10 118 26 214 17 309 -35 387 -17 24 -30 47 -30 50 0 7 106 -6
152 -19z m2258 16 c0 -3 -12 -21 -26 -39 -55 -72 -66 -183 -40 -400 7 -60 12
-111 11 -113 -2 -2 -13 27 -25 65 -13 37 -40 106 -60 153 -55 126 -92 240 -86
264 7 30 55 55 123 65 74 11 103 12 103 5z m-1408 -264 c20 -22 45 -61 55 -85
14 -35 26 -48 50 -56 18 -6 48 -28 66 -49 l33 -39 28 36 c16 19 44 41 62 49
25 11 41 29 63 72 41 80 75 109 155 131 77 21 84 7 10 -20 -54 -20 -87 -50
-124 -113 l-23 -38 24 12 c13 7 32 19 42 28 9 8 20 12 23 9 14 -13 -24 -42
-102 -78 -57 -26 -93 -51 -120 -82 l-39 -44 -39 44 c-27 31 -62 55 -120 82
-77 36 -116 65 -103 77 3 3 21 -6 40 -20 47 -36 52 -33 26 14 -32 56 -69 88
-124 108 -76 27 -67 43 12 22 56 -15 75 -26 105 -60z m-257 -205 c21 -11 57
-37 79 -60 l39 -40 -6 63 c-3 34 -3 62 -1 62 2 0 13 -15 24 -32 23 -37 27
-112 8 -153 -11 -25 -28 -34 -28 -15 0 6 -7 21 -16 35 -15 23 -17 23 -56 9
-56 -20 -136 -18 -178 4 -22 12 -42 33 -55 60 -11 23 -23 42 -28 42 -10 0 -5
-40 8 -75 4 -11 -2 -6 -14 10 -11 17 -21 37 -21 46 0 8 -12 20 -27 26 l-28 11
26 1 c15 1 42 8 60 16 46 21 161 15 214 -10z m808 -37 l-6 -61 40 40 c57 57
116 83 191 83 35 0 79 -7 99 -15 19 -8 47 -15 62 -16 l26 -1 -27 -11 c-16 -6
-28 -19 -28 -28 0 -10 -11 -31 -25 -46 l-25 -28 15 30 c8 17 15 38 15 48 0 29
-22 14 -34 -23 -22 -69 -135 -101 -234 -66 -39 14 -41 14 -56 -9 -9 -14 -16
-29 -16 -35 0 -19 -17 -10 -28 15 -19 41 -15 116 8 153 11 17 22 32 24 32 2 0
2 -28 -1 -62z m-1253 19 c0 -40 62 -100 150 -145 91 -47 92 -52 4 -21 -44 15
-77 19 -131 17 -62 -3 -76 -7 -110 -34 -55 -45 -78 -83 -103 -176 -31 -115
-25 -287 12 -398 15 -41 25 -76 23 -78 -2 -2 -15 16 -29 40 -38 66 -57 151
-63 283 -6 138 10 236 54 324 24 51 165 211 184 211 5 0 9 -10 9 -23z m1903
-57 c125 -133 163 -244 154 -455 -3 -66 -13 -147 -22 -180 -15 -56 -62 -151
-71 -143 -2 2 8 38 23 79 39 109 44 281 13 397 -25 92 -48 131 -102 175 -31
25 -49 30 -106 35 -63 4 -98 -2 -199 -34 -10 -3 15 11 55 31 87 43 149 100
158 143 4 18 10 32 14 32 4 0 42 -36 83 -80z m-807 13 c-21 -42 -65 -79 -118
-102 -26 -11 -52 -29 -58 -41 -11 -21 -12 -20 -40 10 -15 16 -42 33 -59 36
-18 4 -47 24 -71 50 -47 51 -53 77 -10 40 17 -14 50 -31 73 -37 23 -6 53 -19
67 -29 24 -17 26 -17 50 0 14 10 44 23 68 29 24 7 57 25 75 41 40 36 41 37 23
3z m-631 -128 c-16 -8 -41 -14 -55 -14 -19 0 -16 3 15 14 53 17 78 17 40 0z
m268 -16 c34 -18 73 -36 87 -40 17 -6 10 -7 -23 -3 l-47 5 -20 -43 c-23 -53
-12 -76 26 -52 21 14 29 14 86 0 57 -14 68 -14 126 0 58 15 65 15 88 0 23 -16
25 -15 31 0 3 9 1 31 -5 48 l-11 31 20 -25 c14 -16 19 -33 15 -50 -3 -14 -8
-39 -12 -56 -5 -26 -9 -30 -30 -26 -15 3 -32 -2 -42 -11 -9 -9 -29 -26 -43
-39 -20 -18 -28 -38 -33 -79 -9 -69 -26 -100 -26 -46 0 26 -4 37 -15 37 -11 0
-15 -11 -15 -37 0 -54 -17 -23 -26 46 -7 54 -9 58 -76 116 -11 10 -30 15 -43
13 -19 -4 -24 0 -28 21 -3 14 -9 38 -13 54 -5 20 0 37 19 66 l26 39 -39 16
-40 16 -44 -34 c-43 -32 -100 -58 -158 -70 -36 -8 -46 -46 -25 -92 17 -35 9
-46 -13 -20 -17 21 -77 39 -105 32 -58 -15 -39 -109 32 -157 24 -17 43 -32 41
-34 -2 -2 -25 3 -51 12 -25 8 -53 13 -62 9 -23 -8 -19 -68 7 -102 20 -25 20
-27 4 -21 -18 7 -18 3 -13 -53 8 -72 29 -117 63 -132 21 -10 39 -5 132 37 184
83 210 87 314 53 78 -25 91 -19 103 40 l8 37 9 -35 c17 -62 28 -66 103 -42
104 35 134 30 318 -53 99 -45 109 -47 133 -35 35 19 53 58 61 130 5 56 5 60
-13 53 -16 -6 -16 -4 4 21 26 34 30 94 7 102 -9 4 -37 -1 -62 -9 -26 -9 -49
-14 -51 -12 -2 2 17 17 41 34 71 48 90 142 32 157 -28 7 -88 -11 -105 -32 -23
-27 -28 -14 -12 30 15 42 15 46 -2 65 -11 12 -29 21 -40 21 -29 0 -115 41
-153 74 -31 26 -32 26 -72 10 -23 -9 -39 -19 -37 -23 2 -3 -19 -7 -48 -8 l-51
-2 35 13 c20 8 60 26 89 41 l54 27 41 -40 c56 -54 75 -62 145 -62 65 0 91 -15
91 -53 0 -20 4 -22 49 -19 40 3 53 0 71 -18 20 -20 22 -30 17 -80 -6 -54 -5
-58 18 -68 21 -10 25 -18 25 -55 0 -29 -7 -53 -20 -70 -16 -20 -20 -40 -20
-97 0 -114 -37 -170 -112 -170 l-37 0 15 -42 c22 -59 30 -195 15 -241 -7 -20
-37 -77 -67 -127 -30 -50 -60 -103 -66 -118 -6 -15 -14 -86 -17 -159 -7 -119
-10 -135 -34 -171 -46 -71 -86 -93 -184 -104 -119 -14 -394 -3 -431 16 -37 19
-90 80 -108 122 -9 21 -14 71 -14 134 0 114 -18 179 -70 254 -17 26 -45 76
-62 113 -38 80 -41 161 -10 261 l20 62 -37 0 c-74 0 -111 56 -111 170 0 57 -4
77 -20 97 -13 17 -20 41 -20 70 0 37 4 45 25 55 23 10 24 14 18 68 -5 50 -3
60 17 80 18 18 31 21 71 18 45 -3 49 -1 49 19 0 38 26 53 94 53 53 0 69 4 102
29 21 15 48 38 58 50 11 11 21 21 23 21 2 0 32 -14 66 -31z m652 16 c40 -11
44 -14 20 -14 -16 0 -43 6 -60 14 -39 17 -23 18 40 0z m-875 -280 c0 -8 -7
-15 -15 -15 -8 0 -15 7 -15 15 0 8 7 15 15 15 8 0 15 -7 15 -15z m820 0 c0 -8
-7 -15 -15 -15 -8 0 -15 7 -15 15 0 8 7 15 15 15 8 0 15 -7 15 -15z m-770 -35
c0 -5 -7 -10 -16 -10 -8 0 -12 5 -9 10 3 6 10 10 16 10 5 0 9 -4 9 -10z m710
0 c0 -5 -4 -10 -10 -10 -5 0 -10 5 -10 10 0 6 5 10 10 10 6 0 10 -4 10 -10z
m-660 -24 c0 -3 -4 -8 -10 -11 -5 -3 -10 -1 -10 4 0 6 5 11 10 11 6 0 10 -2
10 -4z m-167 -77 c-17 -17 -37 -1 -22 17 8 10 15 12 23 4 7 -7 7 -13 -1 -21z
m947 5 c0 -8 -7 -14 -15 -14 -15 0 -21 21 -9 33 10 9 24 -2 24 -19z m-900 -24
c0 -5 -4 -10 -10 -10 -5 0 -10 5 -10 10 0 6 5 10 10 10 6 0 10 -4 10 -10z
m850 0 c0 -5 -4 -10 -10 -10 -5 0 -10 5 -10 10 0 6 5 10 10 10 6 0 10 -4 10
-10z m-980 -75 c0 -8 -7 -15 -15 -15 -8 0 -15 7 -15 15 0 8 7 15 15 15 8 0 15
-7 15 -15z m1120 0 c0 -8 -7 -15 -15 -15 -8 0 -15 7 -15 15 0 8 7 15 15 15 8
0 15 -7 15 -15z m-1066 -26 c-3 -5 -10 -7 -15 -3 -5 3 -7 10 -3 15 3 5 10 7
15 3 5 -3 7 -10 3 -15z m1000 0 c-3 -5 -10 -7 -15 -3 -5 3 -7 10 -3 15 3 5 10
7 15 3 5 -3 7 -10 3 -15z m-429 -1198 c22 -10 53 -32 68 -49 l29 -30 -69 20
c-78 22 -169 20 -243 -7 l-45 -16 34 35 c19 19 48 42 65 50 42 21 112 20 161
-3z"/>
<path d="M3554 5435 c-11 -28 6 -65 39 -85 41 -26 93 -25 136 1 30 18 32 22
18 36 -13 14 -17 13 -36 -6 -23 -23 -43 -26 -72 -10 -13 6 -18 16 -15 26 4 9
4 24 1 34 -8 24 -63 26 -71 4z"/>
<path d="M3645 5411 c-7 -12 12 -24 25 -16 11 7 4 25 -10 25 -5 0 -11 -4 -15
-9z"/>
<path d="M4722 5430 c-6 -11 -18 -17 -26 -14 -17 6 -31 -12 -16 -21 6 -4 17
-2 25 5 10 8 15 8 21 -1 8 -14 -22 -39 -48 -39 -10 0 -27 9 -38 20 -18 18 -50
18 -50 0 0 -5 12 -18 26 -29 71 -56 209 9 180 84 -8 22 -59 19 -74 -5z"/>
<path d="M4170 4680 c0 -5 -10 -16 -23 -25 -21 -13 -30 -13 -81 0 -72 19 -114
19 -180 0 -88 -26 -144 -68 -170 -128 -56 -125 -54 -251 6 -356 83 -148 82
-144 88 -287 5 -127 6 -134 35 -176 47 -66 86 -88 164 -90 164 -4 382 3 408
13 35 13 68 43 96 88 18 30 22 56 27 166 5 122 7 134 37 190 97 185 107 218
91 329 -14 99 -51 172 -108 207 -91 58 -169 69 -299 41 -40 -9 -46 -8 -68 14
-12 13 -23 19 -23 14z m-226 -65 c-1 -11 -11 -62 -23 -112 -11 -51 -21 -115
-21 -143 0 -27 -4 -50 -8 -50 -35 0 -82 255 -54 296 13 20 47 34 77 31 23 -1
30 -7 29 -22z m148 -4 c24 -16 45 -25 46 -20 6 17 22 9 22 -10 0 -23 -16 -37
-23 -19 -3 10 -7 10 -19 0 -11 -9 -18 -10 -23 -2 -4 7 -16 3 -35 -10 -15 -11
-30 -20 -33 -20 -3 0 -9 20 -12 44 -12 74 8 84 77 37z m242 13 c6 -16 -3 -94
-11 -94 -3 0 -18 9 -33 20 -19 13 -31 17 -35 10 -5 -8 -11 -8 -20 0 -7 6 -20
8 -29 4 -12 -4 -16 0 -16 15 0 21 15 29 22 12 2 -5 21 3 43 19 46 32 70 37 79
14z m151 4 c32 -15 39 -42 32 -132 -5 -72 -41 -186 -58 -186 -5 0 -9 22 -9 48
0 45 -34 224 -46 244 -20 32 31 49 81 26z m-491 -100 c6 -13 25 -27 41 -31 57
-17 80 -33 102 -72 21 -37 23 -53 24 -215 1 -96 4 -188 8 -205 6 -28 7 -27 14
19 4 27 7 119 7 205 0 143 2 159 23 196 23 40 50 60 101 70 19 4 32 15 39 35
6 17 15 30 19 30 17 0 58 -183 58 -262 0 -59 9 -56 50 15 19 34 30 45 30 32 0
-19 -66 -124 -79 -126 -72 -9 -101 -53 -102 -157 -1 -88 30 -152 73 -152 27 0
32 -24 12 -65 -25 -53 -56 -71 -95 -55 -24 10 -40 10 -83 0 -30 -7 -69 -10
-87 -6 -19 4 -46 9 -62 13 -15 3 -40 0 -56 -7 -37 -15 -61 -3 -91 45 -26 42
-23 67 10 75 14 3 35 21 47 39 31 46 33 170 3 218 -17 28 -60 63 -60 48 0 -3
-9 -1 -20 5 -26 14 -68 77 -80 121 -7 28 -7 31 3 15 7 -10 26 -39 42 -65 l30
-46 7 85 c10 115 40 241 55 227 3 -4 11 -17 17 -29z m-202 -48 c23 -60 24
-138 1 -147 -24 -9 -66 43 -59 72 4 15 1 25 -9 29 -16 6 -19 35 -9 74 5 18 13
22 33 20 20 -2 29 -13 43 -48z m842 28 c10 -39 7 -68 -9 -74 -10 -4 -13 -14
-9 -29 7 -30 -35 -81 -61 -71 -15 5 -17 15 -13 69 7 79 30 127 62 127 16 0 26
-7 30 -22z m-808 -202 c16 -13 17 -18 6 -36 -11 -19 -11 -24 4 -35 15 -10 16
-16 6 -28 -10 -11 -9 -17 3 -27 8 -7 15 -20 15 -29 0 -22 -29 -63 -42 -59 -14
5 -48 97 -48 131 0 15 -6 36 -12 48 -11 17 -10 22 6 35 11 8 25 14 31 14 6 0
20 -6 31 -14z m765 -2 c10 -12 10 -20 1 -35 -7 -10 -12 -31 -12 -46 0 -40 -35
-128 -51 -128 -7 0 -20 12 -29 27 -12 22 -12 32 -3 45 6 10 17 17 24 15 8 -2
5 6 -6 18 -19 21 -19 22 -2 35 16 11 17 16 5 35 -11 18 -10 23 6 36 26 18 50
18 67 -2z m-666 -493 c3 -10 14 -26 25 -36 17 -16 26 -17 56 -7 32 10 36 9 43
-11 10 -28 -3 -75 -26 -93 -45 -34 -107 0 -122 68 -14 61 7 131 24 79z m525
-40 c0 -49 -4 -65 -26 -90 -42 -50 -103 -39 -124 23 -8 25 -8 41 -1 55 9 17
15 18 46 8 29 -9 38 -7 55 8 11 10 22 26 25 36 12 38 25 17 25 -40z m-326 -73
c8 -32 7 -38 -4 -38 -13 0 -32 38 -25 50 10 17 22 11 29 -12z m129 8 c7 -16
-18 -54 -28 -44 -9 9 3 58 14 58 5 0 11 -6 14 -14z m-93 -22 c0 -8 -4 -14 -10
-14 -5 0 -10 9 -10 21 0 11 5 17 10 14 6 -3 10 -13 10 -21z m46 -11 c-11 -11
-19 6 -11 24 8 17 8 17 12 0 3 -10 2 -21 -1 -24z m-118 8 c3 -8 -1 -12 -9 -9
-7 2 -15 10 -17 17 -3 8 1 12 9 9 7 -2 15 -10 17 -17z m202 10 c0 -12 -20 -25
-27 -18 -7 7 6 27 18 27 5 0 9 -4 9 -9z"/>
<path d="M2943 3152 l-33 -3 0 -135 c0 -127 1 -134 20 -134 17 0 20 7 20 50 0
49 1 50 30 50 43 0 77 19 90 51 13 32 6 82 -15 99 -19 16 -72 26 -112 22z m87
-51 c24 -45 -2 -91 -52 -91 -27 0 -28 1 -28 55 l0 55 35 0 c24 0 37 -6 45 -19z"/>
<path d="M3153 3153 c-23 -4 -23 -7 -23 -139 0 -112 2 -134 15 -134 13 0 15
20 15 120 l0 120 35 0 c62 0 74 -73 16 -101 l-29 -15 42 -59 c27 -38 50 -61
64 -63 22 -3 21 -1 -14 52 l-36 55 26 31 c14 18 26 43 26 56 0 30 -41 74 -69
74 -11 0 -25 2 -33 4 -7 2 -23 1 -35 -1z"/>
<path d="M3412 3148 c-47 -13 -72 -59 -72 -131 0 -97 32 -137 110 -137 23 0
50 5 61 10 65 35 66 215 1 248 -31 16 -66 20 -100 10z m82 -41 c37 -27 40
-138 5 -176 -28 -30 -73 -27 -98 5 -34 43 -26 150 13 176 17 12 61 9 80 -5z"/>
<path d="M4504 3150 c-17 -4 -35 -10 -41 -13 -21 -13 -43 -76 -43 -120 0 -90
37 -137 108 -137 54 0 77 12 98 51 29 57 13 180 -26 204 -23 14 -67 21 -96 15z
m80 -52 c34 -54 26 -157 -14 -178 -60 -32 -110 10 -110 95 0 68 26 105 75 105
25 0 39 -6 49 -22z"/>
<path d="M5093 3153 c-85 -16 -115 -182 -44 -245 41 -37 107 -39 146 -5 43 36
55 139 23 200 -18 34 -78 58 -125 50z m91 -76 c36 -74 1 -167 -63 -167 -44 0
-71 40 -71 105 0 72 27 107 79 103 31 -3 39 -9 55 -41z"/>
<path d="M3580 3136 c0 -10 13 -16 38 -18 l37 -3 2 -105 c1 -58 2 -111 2 -117
1 -7 8 -13 16 -13 13 0 15 20 15 120 l0 120 35 0 c24 0 35 5 35 15 0 12 -17
15 -90 15 -72 0 -90 -3 -90 -14z"/>
<path d="M3810 3015 l0 -135 75 0 c59 0 75 3 75 15 0 10 -15 15 -57 17 l-58 3
0 45 0 45 43 3 c28 2 42 8 42 17 0 9 -14 15 -42 17 -42 3 -43 4 -43 38 l0 35
58 3 c42 2 57 7 57 17 0 12 -16 15 -75 15 l-75 0 0 -135z"/>
<path d="M4052 3134 c-72 -50 -68 -203 8 -244 30 -16 125 -9 125 10 0 11 -11
14 -45 12 -66 -3 -100 32 -100 103 0 74 27 101 109 107 19 2 36 9 39 16 6 19
-108 16 -136 -4z"/>
<path d="M4220 3135 c0 -10 11 -15 35 -15 l35 0 0 -120 c0 -113 1 -120 20
-120 19 0 20 7 20 120 l0 120 35 0 c24 0 35 5 35 15 0 12 -17 15 -90 15 -73 0
-90 -3 -90 -15z"/>
<path d="M4700 3015 c0 -128 1 -135 20 -135 19 0 20 7 20 120 l0 120 30 0 c39
0 67 -39 50 -69 -6 -11 -22 -26 -35 -33 l-24 -13 41 -63 c26 -39 47 -62 59
-62 26 0 24 5 -16 62 l-35 49 27 23 c20 18 27 32 27 61 0 54 -29 75 -105 75
l-59 0 0 -135z"/>
<path d="M5292 3018 c3 -117 5 -133 21 -136 15 -3 17 5 17 57 0 56 2 61 23 62
55 3 62 5 65 22 3 14 -4 17 -42 17 l-46 0 0 40 0 40 55 0 c42 0 55 3 55 15 0
12 -15 15 -75 15 l-76 0 3 -132z"/>
<path d="M2460 2729 c0 -18 102 -642 116 -711 5 -26 9 -28 59 -28 62 0 53 -22
85 205 12 83 24 161 27 175 4 15 18 -51 37 -175 l32 -200 55 -3 55 -3 12 73
c43 264 102 652 102 669 0 18 -6 20 -57 17 l-58 -3 -27 -190 c-14 -104 -27
-192 -28 -195 -2 -5 -7 29 -46 283 l-16 107 -59 0 c-58 0 -58 0 -64 -32 -9
-51 -45 -329 -45 -346 0 -48 -14 16 -36 164 -34 237 -25 214 -89 214 -49 0
-55 -2 -55 -21z"/>
<path d="M3160 2743 c0 -5 -13 -84 -29 -178 -17 -93 -44 -253 -61 -355 -17
-102 -33 -193 -36 -202 -5 -16 2 -18 55 -18 66 0 65 -2 76 85 11 86 10 85 75
85 66 0 58 13 78 -115 l7 -50 61 -3 60 -3 -52 308 c-28 169 -57 341 -64 381
l-12 72 -79 0 c-43 0 -79 -3 -79 -7z m104 -328 c9 -66 16 -126 16 -132 0 -8
-15 -13 -40 -13 -24 0 -40 5 -40 12 0 42 35 267 40 261 4 -5 14 -62 24 -128z"/>
<path d="M3547 2743 c-4 -3 -7 -174 -7 -380 l0 -373 60 0 60 0 0 120 c0 89 4
129 15 150 9 17 17 30 19 30 2 0 29 -67 61 -150 l58 -150 69 0 c38 0 67 4 64
8 -13 22 -176 426 -176 438 0 8 34 82 75 164 l75 150 -59 0 -60 0 -68 -130
-68 -130 -3 130 -3 130 -53 0 c-29 0 -56 -3 -59 -7z"/>
<path d="M4155 2728 c-2 -13 -30 -171 -60 -353 -31 -181 -58 -342 -61 -357
l-6 -28 60 0 c67 0 62 -8 78 118 l7 52 62 0 63 0 12 -85 12 -85 59 0 c35 0 59
4 59 11 0 16 -120 722 -125 737 -3 8 -28 12 -79 12 -70 0 -76 -2 -81 -22z
m105 -312 c11 -75 20 -139 20 -142 0 -6 -75 -5 -81 1 -3 2 4 68 14 145 11 77
22 139 23 137 2 -2 13 -65 24 -141z"/>
<path d="M4540 2370 l0 -380 60 0 60 0 1 233 1 232 23 -70 c13 -38 47 -143 76
-232 l52 -163 64 0 63 0 0 380 0 380 -60 0 -60 0 -2 -246 -3 -246 -53 179
c-28 98 -61 208 -73 246 l-20 67 -64 0 -65 0 0 -380z"/>
<path d="M5040 2370 l0 -380 115 0 c126 0 150 7 197 57 45 47 48 70 48 324 0
216 -2 244 -19 277 -41 80 -92 102 -236 102 l-105 0 0 -380z m230 240 c19 -19
20 -33 20 -245 0 -218 -1 -225 -22 -245 -15 -14 -35 -20 -65 -20 l-43 0 -1
245 c-1 135 -2 251 -3 258 -4 22 5 27 50 27 31 0 50 -6 64 -20z"/>
<path d="M5610 2743 c0 -9 -119 -703 -125 -730 -5 -22 -2 -23 54 -23 66 0 65
-2 76 85 11 86 10 85 75 85 l58 0 11 -63 c6 -35 11 -73 11 -85 0 -20 5 -22 63
-22 l63 0 -52 308 c-28 169 -57 340 -64 380 l-12 72 -79 0 c-43 0 -79 -3 -79
-7z m104 -328 c9 -66 16 -126 16 -132 0 -8 -15 -13 -40 -13 -24 0 -40 5 -40
12 0 42 35 267 40 261 4 -5 14 -62 24 -128z"/>
<path d="M1494 1430 c40 -12 420 -66 596 -85 600 -63 1206 -74 2660 -50 666
12 1156 36 1500 76 179 21 400 55 408 64 3 3 -1164 5 -2594 4 -1475 0 -2587
-4 -2570 -9z"/>
</g>
</svg>
